<mxfile host="app.diagrams.net" modified="2023-09-23T05:31:57.796Z" agent="Mozilla/5.0 (Windows NT 10.0; Win64; x64) AppleWebKit/537.36 (KHTML, like Gecko) Chrome/116.0.0.0 Safari/537.36" etag="Zu3dTtgjKEX7gVVfW5kR" version="21.8.0" type="device">
  <diagram name="Page-1" id="9j9q4shkdyO4V5RBMbPK">
    <mxGraphModel dx="1500" dy="809" grid="1" gridSize="10" guides="1" tooltips="1" connect="1" arrows="1" fold="1" page="1" pageScale="1" pageWidth="850" pageHeight="1100" math="0" shadow="0">
      <root>
        <mxCell id="0" />
        <mxCell id="1" parent="0" />
        <mxCell id="lJEgKPkhq4z76haPoPXg-1" value="main" style="strokeWidth=2;html=1;shape=mxgraph.flowchart.terminator;whiteSpace=wrap;" parent="1" vertex="1">
          <mxGeometry x="376" y="220" width="100" height="60" as="geometry" />
        </mxCell>
        <mxCell id="lJEgKPkhq4z76haPoPXg-7" style="edgeStyle=orthogonalEdgeStyle;rounded=0;orthogonalLoop=1;jettySize=auto;html=1;entryX=0.5;entryY=0;entryDx=0;entryDy=0;" parent="1" target="lJEgKPkhq4z76haPoPXg-6" edge="1">
          <mxGeometry relative="1" as="geometry">
            <mxPoint x="425" y="280" as="sourcePoint" />
          </mxGeometry>
        </mxCell>
        <mxCell id="lJEgKPkhq4z76haPoPXg-11" style="edgeStyle=orthogonalEdgeStyle;rounded=0;orthogonalLoop=1;jettySize=auto;html=1;entryX=0.5;entryY=0;entryDx=0;entryDy=0;" parent="1" source="lJEgKPkhq4z76haPoPXg-6" target="lJEgKPkhq4z76haPoPXg-8" edge="1">
          <mxGeometry relative="1" as="geometry" />
        </mxCell>
        <mxCell id="lJEgKPkhq4z76haPoPXg-6" value="string str" style="shape=internalStorage;whiteSpace=wrap;html=1;dx=15;dy=15;rounded=1;arcSize=8;strokeWidth=2;" parent="1" vertex="1">
          <mxGeometry x="330" y="320" width="190" height="70" as="geometry" />
        </mxCell>
        <mxCell id="lJEgKPkhq4z76haPoPXg-12" value="" style="edgeStyle=orthogonalEdgeStyle;rounded=0;orthogonalLoop=1;jettySize=auto;html=1;" parent="1" source="lJEgKPkhq4z76haPoPXg-8" target="lJEgKPkhq4z76haPoPXg-9" edge="1">
          <mxGeometry relative="1" as="geometry" />
        </mxCell>
        <mxCell id="lJEgKPkhq4z76haPoPXg-8" value="input getline (str)" style="shape=parallelogram;html=1;strokeWidth=2;perimeter=parallelogramPerimeter;whiteSpace=wrap;rounded=1;arcSize=12;size=0.23;" parent="1" vertex="1">
          <mxGeometry x="325" y="440" width="200" height="60" as="geometry" />
        </mxCell>
        <mxCell id="lJEgKPkhq4z76haPoPXg-13" value="" style="edgeStyle=orthogonalEdgeStyle;rounded=0;orthogonalLoop=1;jettySize=auto;html=1;" parent="1" source="lJEgKPkhq4z76haPoPXg-9" target="lJEgKPkhq4z76haPoPXg-10" edge="1">
          <mxGeometry relative="1" as="geometry" />
        </mxCell>
        <mxCell id="lJEgKPkhq4z76haPoPXg-9" value="output str" style="shape=parallelogram;html=1;strokeWidth=2;perimeter=parallelogramPerimeter;whiteSpace=wrap;rounded=1;arcSize=12;size=0.23;" parent="1" vertex="1">
          <mxGeometry x="326" y="550" width="200" height="60" as="geometry" />
        </mxCell>
        <mxCell id="lJEgKPkhq4z76haPoPXg-10" value="end" style="strokeWidth=2;html=1;shape=mxgraph.flowchart.terminator;whiteSpace=wrap;" parent="1" vertex="1">
          <mxGeometry x="375" y="670" width="100" height="60" as="geometry" />
        </mxCell>
        <mxCell id="lJEgKPkhq4z76haPoPXg-15" value="MESIN OUTPUT" style="text;html=1;strokeColor=none;fillColor=none;align=center;verticalAlign=middle;whiteSpace=wrap;rounded=0;" parent="1" vertex="1">
          <mxGeometry x="368" y="40" width="115" height="30" as="geometry" />
        </mxCell>
      </root>
    </mxGraphModel>
  </diagram>
</mxfile>
